<?xml version="1.0" standalone="no"?>
<!DOCTYPE svg PUBLIC "-//W3C//DTD SVG 20010904//EN"
 "http://www.w3.org/TR/2001/REC-SVG-20010904/DTD/svg10.dtd">
<svg version="1.0" xmlns="http://www.w3.org/2000/svg"
 width="592.000000pt" height="592.000000pt" viewBox="0 0 592.000000 592.000000"
 preserveAspectRatio="xMidYMid meet">
<metadata>
Created by potrace 1.14, written by Peter Selinger 2001-2017
</metadata>
<g transform="translate(0.000000,592.000000) scale(0.100000,-0.100000)"
fill="#000000" stroke="none">
<path d="M4785 5758 c-38 -13 -70 -43 -98 -88 -11 -19 -24 -37 -28 -40 -6 -5
-83 -148 -87 -162 -2 -4 -4 -13 -7 -20 -45 -134 -68 -214 -79 -268 -3 -14 -8
-36 -11 -50 -3 -14 -7 -36 -10 -50 -2 -14 -9 -50 -15 -80 -6 -30 -13 -66 -15
-80 -2 -14 -8 -54 -14 -90 -12 -76 -22 -151 -36 -271 -2 -23 -7 -59 -10 -79
-3 -20 -7 -57 -10 -81 -2 -24 -7 -64 -10 -89 -3 -25 -8 -65 -10 -89 -3 -24 -7
-60 -9 -80 -3 -20 -8 -65 -12 -101 -3 -36 -8 -81 -10 -100 -2 -19 -6 -57 -9
-85 -2 -27 -7 -72 -10 -99 -3 -26 -8 -62 -10 -80 -2 -17 -6 -51 -9 -76 -3 -25
-8 -79 -11 -120 -3 -41 -8 -86 -10 -100 -2 -14 -7 -59 -10 -100 -3 -41 -8 -86
-10 -100 -3 -23 -8 -63 -20 -170 -3 -25 -8 -63 -11 -85 -3 -22 -7 -56 -9 -75
-2 -19 -6 -53 -9 -75 -3 -22 -8 -60 -11 -85 -10 -89 -17 -114 -26 -97 -9 15
-68 244 -74 282 -1 11 -8 43 -15 70 -6 28 -14 59 -16 70 -3 11 -7 34 -10 50
-3 17 -14 66 -25 110 -16 69 -27 118 -55 245 -3 13 -12 56 -20 95 -9 38 -18
79 -20 90 -3 11 -7 31 -10 45 -3 14 -13 61 -23 105 -11 44 -31 134 -46 200
-60 265 -109 441 -158 559 -57 139 -190 360 -255 420 -71 68 -143 53 -186 -39
-39 -82 -140 -421 -171 -575 -2 -8 -4 -15 -5 -15 -1 0 -3 -9 -5 -20 -3 -22
-14 -86 -21 -118 -2 -12 -6 -39 -9 -62 -3 -22 -8 -47 -10 -55 -2 -8 -6 -33 -9
-55 -3 -22 -10 -78 -17 -125 -6 -47 -13 -105 -15 -130 -6 -71 -14 -146 -18
-167 -2 -10 -7 -50 -10 -88 -12 -128 -18 -200 -22 -225 -2 -14 -6 -50 -9 -80
-3 -30 -8 -75 -11 -100 -3 -25 -7 -74 -10 -110 -2 -36 -7 -96 -10 -135 -3 -38
-7 -97 -9 -130 -12 -225 -18 -311 -20 -324 -2 -9 -4 -25 -5 -36 -1 -15 -5 -11
-20 16 -11 20 -21 48 -24 62 -2 14 -9 35 -16 46 -6 12 -9 21 -6 21 2 0 0 16
-6 36 -5 20 -11 44 -13 53 -16 66 -98 389 -103 401 -3 8 -6 22 -8 30 -6 31
-26 106 -35 130 -5 14 -11 34 -13 45 -2 11 -14 56 -26 100 -12 44 -23 87 -25
95 -35 140 -156 523 -210 665 -26 69 -93 212 -117 250 -147 233 -216 297 -301
282 -59 -11 -136 -125 -167 -247 -6 -25 -18 -62 -25 -82 -8 -21 -13 -38 -10
-38 2 0 1 -10 -4 -23 -5 -12 -12 -44 -15 -71 -4 -27 -9 -52 -11 -55 -2 -4 -6
-38 -10 -76 -3 -39 -8 -88 -11 -110 -8 -61 -14 -125 -19 -180 -2 -27 -7 -70
-10 -95 -4 -25 -8 -65 -10 -91 -3 -41 -8 -92 -20 -209 -5 -52 -15 -159 -20
-210 -2 -19 -6 -66 -9 -105 -4 -38 -9 -84 -11 -101 -2 -17 -7 -64 -10 -105 -4
-41 -9 -87 -11 -104 -2 -16 -6 -64 -8 -105 -3 -41 -9 -104 -12 -140 -4 -36 -8
-78 -9 -95 -1 -16 -5 -52 -8 -80 -4 -27 -9 -90 -13 -140 -3 -49 -7 -101 -9
-115 -1 -14 -3 -50 -3 -80 l-2 -55 -18 30 c-28 47 -72 180 -128 390 -7 28 -59
208 -75 265 -11 36 -48 171 -83 300 -101 368 -144 516 -207 705 -32 94 -36
106 -63 168 -9 21 -16 42 -16 47 0 21 -111 242 -164 327 -120 192 -265 308
-341 270 -30 -14 -64 -60 -80 -107 -1 -3 -7 -18 -14 -35 -7 -16 -14 -37 -16
-45 -2 -8 -10 -35 -18 -60 -14 -40 -40 -144 -67 -265 -10 -43 -31 -173 -35
-215 -2 -14 -5 -43 -8 -65 -3 -22 -9 -71 -13 -110 -3 -38 -8 -81 -9 -95 -12
-95 -17 -141 -20 -185 -1 -27 -6 -95 -9 -150 -15 -212 -17 -301 -16 -625 0
-341 4 -505 15 -710 4 -63 9 -146 11 -185 7 -138 20 -308 29 -409 3 -28 8 -82
11 -121 11 -147 21 -262 29 -330 3 -22 8 -60 11 -85 14 -118 36 -227 52 -255
21 -35 79 -77 101 -73 17 4 19 125 7 573 -27 1034 -25 1281 19 1755 7 79 16
184 20 233 2 26 7 73 10 105 3 31 8 75 10 96 3 21 7 55 10 75 2 20 7 59 11 86
8 78 42 243 68 340 9 33 19 69 21 79 3 11 19 65 37 120 17 56 31 104 30 108
-1 3 5 12 13 18 12 10 15 10 15 0 0 -7 33 -108 74 -224 73 -212 122 -366 132
-420 3 -16 9 -37 14 -46 5 -9 11 -29 14 -44 3 -15 12 -50 20 -79 17 -59 39
-139 66 -242 18 -69 28 -106 70 -257 11 -43 23 -85 25 -95 2 -10 11 -43 20
-73 9 -30 18 -62 20 -70 2 -8 16 -55 30 -105 14 -49 28 -99 30 -110 3 -11 16
-58 30 -105 14 -47 27 -92 29 -100 6 -23 61 -159 88 -215 58 -123 156 -246
226 -284 40 -22 52 -24 111 -24 50 0 57 3 84 34 42 50 84 162 102 270 3 19 7
45 10 59 18 99 26 266 30 660 3 272 9 445 15 445 1 0 3 16 4 35 3 42 16 155
21 190 2 14 7 49 10 79 4 30 8 61 10 70 1 9 6 45 10 81 4 36 9 74 11 85 3 11
7 40 10 65 2 25 7 59 10 75 6 33 12 65 18 110 22 141 64 263 125 358 28 44 39
46 47 10 3 -16 17 -66 30 -113 40 -140 111 -397 119 -430 1 -8 10 -40 19 -70
8 -30 24 -89 35 -130 11 -41 36 -133 56 -205 20 -71 37 -137 39 -145 17 -66
46 -172 50 -178 3 -5 7 -19 10 -33 2 -13 32 -123 66 -244 34 -121 63 -227 65
-235 11 -53 58 -179 80 -216 31 -54 117 -158 164 -199 44 -39 120 -75 146 -70
11 2 25 4 31 4 15 1 49 67 68 130 38 129 50 237 61 546 3 83 7 197 11 255 5
102 8 134 18 250 3 30 8 96 11 146 3 51 8 102 11 115 3 13 7 51 9 84 2 33 7
78 10 100 3 22 7 56 10 75 2 19 7 53 9 75 3 22 8 60 11 85 9 78 16 123 26 180
6 30 12 66 14 80 6 39 75 312 86 340 5 14 12 36 14 50 9 51 50 164 61 167 6 2
16 -8 22 -22 10 -23 43 -142 56 -205 3 -14 12 -56 21 -95 19 -87 16 -71 65
-310 66 -325 81 -399 86 -425 3 -14 12 -54 20 -90 9 -36 17 -74 18 -85 5 -31
25 -130 53 -250 14 -60 26 -118 29 -129 6 -32 67 -221 74 -231 4 -5 10 -23 14
-40 11 -43 93 -211 134 -275 85 -130 229 -235 293 -215 14 5 31 46 45 107 2
10 6 27 9 38 17 68 33 142 40 180 3 19 8 42 10 50 4 15 13 72 20 125 4 30 9
69 21 175 3 30 7 107 9 170 7 218 15 385 20 440 3 30 8 84 11 120 3 36 8 74
10 85 8 41 33 202 39 250 3 28 10 73 15 100 5 28 8 57 8 65 0 22 12 181 17
210 2 14 6 46 10 73 8 71 16 140 20 162 2 11 6 40 10 65 26 185 168 588 233
666 74 89 114 -1 197 -441 13 -71 27 -143 30 -160 4 -16 9 -41 11 -55 8 -44
12 -63 28 -145 9 -44 18 -91 21 -105 3 -14 9 -47 15 -75 12 -63 22 -114 25
-140 2 -11 4 -20 5 -20 1 0 3 -11 6 -25 2 -14 11 -59 20 -100 9 -41 17 -82 19
-91 2 -9 6 -32 9 -50 3 -19 10 -49 15 -67 5 -18 10 -36 10 -40 1 -6 6 -36 15
-82 2 -8 6 -26 9 -40 4 -14 9 -36 11 -50 2 -14 11 -54 20 -90 9 -36 18 -74 20
-85 7 -32 86 -337 96 -370 27 -88 42 -137 44 -148 2 -14 27 -95 103 -337 30
-96 56 -179 57 -185 1 -5 20 -64 41 -130 21 -66 39 -122 40 -125 4 -30 61
-190 67 -190 4 0 9 3 9 8 1 4 3 16 5 27 1 11 5 29 7 40 22 94 23 252 4 340
-10 44 -48 188 -86 330 -22 83 -61 238 -86 345 -25 107 -49 206 -52 220 -11
46 -50 224 -56 260 -3 14 -17 84 -32 155 -15 72 -28 139 -29 150 -2 11 -6 29
-9 40 -3 11 -8 36 -11 55 -3 19 -16 91 -30 160 -32 159 -38 191 -41 210 -1 8
-5 29 -8 45 -4 17 -9 41 -12 55 -3 14 -7 36 -10 50 -3 14 -7 36 -10 50 -4 22
-16 79 -30 150 -8 35 -22 100 -29 130 -4 14 -9 39 -11 55 -3 17 -10 44 -15 60
-5 17 -11 44 -14 60 -2 17 -5 30 -6 30 -1 0 -3 7 -5 15 -8 45 -108 400 -123
440 -3 8 -6 17 -7 20 -5 23 -61 182 -72 210 -76 177 -136 275 -186 301 -30 17
-77 20 -112 7z"/>
</g>
</svg>
