<svg width="426" height="373" viewBox="0 0 426 373" fill="none" xmlns="http://www.w3.org/2000/svg">
<mask id="mask0_241_15" style="mask-type:alpha" maskUnits="userSpaceOnUse" x="0" y="-14" width="426" height="387">
<rect y="-14" width="426" height="387" fill="#C4C4C4"/>
</mask>
<g mask="url(#mask0_241_15)">
<ellipse cx="378" cy="230.5" rx="134" ry="133.5" fill="#DF5AA8"/>
</g>
<ellipse cx="241" cy="264.5" rx="64" ry="64.5" fill="#97FFF3"/>
<path d="M166.318 207.218C165.807 207.406 164.362 208.312 163.847 208.772C162.495 209.975 161.45 211.395 160.249 213.647C159.46 215.121 158.448 217.111 158.08 217.929C157.963 218.18 157.827 218.427 157.772 218.489C157.718 218.552 157.686 218.643 157.694 218.696C157.702 218.749 157.674 218.8 157.62 218.808C157.575 218.815 157.536 218.86 157.543 218.905C157.555 218.981 156.4 221.405 156.304 221.498C156.281 221.525 156.209 221.652 156.157 221.792C156.079 221.999 154.859 224.246 154.752 224.379C154.69 224.451 154.527 224.227 154.369 223.855C154.183 223.418 153.838 222.429 152.7 219.022C151.778 216.241 151.475 215.581 150.796 214.861C149.945 213.967 148.667 213.161 147.776 212.964C147.142 212.828 146.382 212.945 145.819 213.273C145.138 213.665 142.884 216.15 142.138 217.314C141.57 218.202 141.083 219.023 141.092 219.083C141.097 219.114 141.017 219.25 140.911 219.391C140.804 219.532 140.726 219.676 140.731 219.706C140.736 219.744 140.62 219.995 140.477 220.258C140.327 220.53 140.171 220.826 140.13 220.918C139.519 222.24 139.387 222.517 139.347 222.554C139.315 222.582 139.259 222.692 139.212 222.808C139.175 222.922 139.107 223.073 139.062 223.142C138.777 223.668 138.136 225.212 137.651 226.522C137.505 226.941 137.349 227.292 137.313 227.297C137.277 227.303 137.146 227.222 137.028 227.115C136.88 226.983 136.6 226.412 136.144 225.293C134.637 221.631 133.247 219.203 132.088 218.216C131.666 217.853 130.763 217.277 130.291 217.07C129.553 216.733 128.842 216.633 128.09 216.748C127.044 216.909 126.163 217.488 125.123 218.705C124.548 219.369 124.32 219.73 123.919 220.577C123.642 221.156 123.397 221.644 123.374 221.671C123.342 221.7 123.281 221.841 123.238 221.98C123.188 222.127 123.125 222.254 123.089 222.259C123.044 222.266 122.982 222.4 122.951 222.552C122.92 222.705 122.849 222.84 122.804 222.847C122.759 222.854 122.728 222.89 122.735 222.935C122.745 222.996 122.437 223.673 121.359 225.945C121.303 226.062 121.247 226.172 121.224 226.199C121.2 226.226 121.085 226.485 120.957 226.784C120.829 227.084 120.688 227.354 120.639 227.393C120.59 227.431 120.576 227.464 120.612 227.459C120.648 227.453 120.578 227.651 120.458 227.887C120.34 228.13 120.134 228.574 120.006 228.873C119.878 229.173 119.737 229.443 119.695 229.473C119.654 229.503 119.626 229.554 119.63 229.584C119.646 229.628 119.363 230.348 119.193 230.669C119.152 230.761 119.065 230.969 119.007 231.126L118.905 231.413L118.605 231.188C118.314 230.968 117.679 229.752 115.823 225.904C115.19 224.587 114.467 223.338 113.918 222.63C112.65 220.991 110.993 219.979 109.092 219.704C107.639 219.485 106.799 219.917 105.327 221.652C104.505 222.618 103.928 223.507 103.29 224.833C103.045 225.322 102.821 225.768 102.791 225.811C102.657 226.011 101.72 228.487 101.697 228.7C101.685 228.741 101.632 228.928 101.577 229.107C101.513 229.288 101.459 229.467 101.448 229.516C101.445 229.555 101.321 230.063 101.191 230.643C100.858 232.047 100.541 234.209 100.467 235.573C100.332 238.026 100.329 239.434 100.462 240.299C100.551 240.876 100.565 240.905 100.873 241.067C101.212 241.248 101.821 241.333 102.146 241.244C102.321 241.194 102.426 240.805 102.514 239.89C102.525 239.787 102.594 239.341 102.681 238.893C102.871 237.869 102.858 237.964 102.889 237.687C102.905 237.553 102.935 237.392 102.952 237.328C102.97 237.263 102.992 237.166 102.994 237.119C103.011 236.992 103.051 236.776 103.228 235.847C103.307 235.408 103.415 234.863 103.455 234.647C103.494 234.423 103.541 234.191 103.558 234.126C103.576 234.061 103.603 233.94 103.601 233.87C103.655 233.209 104.502 230.685 105.107 229.38C105.244 229.079 105.408 228.719 105.461 228.587C105.513 228.447 105.584 228.319 105.608 228.292C105.64 228.264 105.693 228.131 105.737 228C105.924 227.435 106.936 225.562 107.369 224.982C107.883 224.281 108.786 223.249 109.312 222.74L109.886 222.186L110.05 222.417C110.142 222.542 110.436 222.964 110.715 223.348C111.486 224.434 111.588 224.62 113.232 228.105C114.087 229.909 114.919 231.568 115.075 231.809C116.267 233.545 118.126 234.323 120.288 233.975C121.263 233.825 122.131 233.163 122.888 232.013C123.385 231.26 123.944 229.713 124.221 228.302C124.277 228.014 124.361 227.729 124.398 227.669C124.444 227.615 124.455 227.567 124.429 227.571C124.241 227.6 125.077 225.66 125.7 224.593C125.874 224.294 126.018 224.039 126.014 224.016C126.011 223.993 126.183 223.687 126.394 223.328C126.596 222.978 126.893 222.466 127.053 222.201C127.633 221.21 128.349 220.447 129.24 219.874C129.564 219.661 129.863 219.522 129.904 219.547C129.954 219.578 130.756 221.219 131.682 223.19C133.538 227.101 134.401 228.841 134.636 229.116C134.838 229.357 135.746 229.846 136.412 230.07C137.348 230.377 138.068 230.476 138.722 230.383C139.258 230.301 139.353 230.263 139.769 229.934C140.047 229.713 140.373 229.336 140.595 228.991C140.801 228.664 141.001 228.361 141.039 228.309C141.075 228.249 141.084 228.185 141.054 228.167C141.014 228.149 141.038 228.122 141.091 228.114C141.154 228.105 141.193 228.06 141.186 228.014C141.18 227.976 141.244 227.741 141.328 227.51C141.41 227.272 141.555 226.846 141.647 226.552C141.923 225.67 142.511 224.134 142.601 224.066C142.651 224.035 142.68 223.984 142.666 223.955C142.636 223.874 143.281 222.415 143.361 222.402C143.397 222.397 143.426 222.346 143.417 222.293C143.4 222.179 144.481 220.163 145.039 219.268C145.26 218.916 145.995 217.987 146.682 217.212C147.818 215.911 147.929 215.8 148.138 215.846C148.517 215.935 148.676 216.369 149.98 220.917C150.316 222.085 150.693 223.286 150.812 223.587C151.117 224.317 151.653 225.12 152.17 225.624C152.578 226.019 153.538 226.664 153.681 226.642C153.726 226.635 153.843 226.68 153.951 226.733C154.422 226.995 155.914 227.231 156.513 227.139C156.898 227.08 156.947 227.041 157.379 226.516C158.419 225.245 159.002 224.339 159.427 223.349C159.514 223.141 159.63 222.944 159.67 222.907C159.719 222.868 159.723 222.837 159.688 222.842C159.652 222.848 159.708 222.621 159.811 222.333C160.016 221.766 160.17 221.276 160.16 221.215C160.146 221.124 160.921 219.318 161.044 219.167C161.113 219.079 161.26 218.846 161.376 218.65C161.485 218.462 161.64 218.22 161.724 218.114C161.809 218.008 161.875 217.904 161.872 217.882C161.861 217.813 162.249 217.124 162.326 217.089C162.36 217.068 162.378 217.011 162.373 216.973C162.355 216.859 162.896 215.734 163.454 214.724C163.983 213.756 164.337 213.321 165.631 212.034C167.012 210.655 168.143 209.976 168.665 210.214C169.059 210.395 169.353 210.994 169.656 212.253C169.951 213.514 170.905 217.035 171.174 217.887C171.882 220.11 172.401 221.219 174.158 224.189C174.952 225.544 175.639 226.674 175.679 226.699C175.761 226.756 176.254 226.089 176.368 225.761C176.414 225.645 176.481 225.541 176.525 225.535C176.561 225.529 176.585 225.502 176.57 225.466C176.556 225.437 176.568 225.217 176.587 224.981C176.633 224.508 176.6 224.412 175.831 222.805C175.048 221.169 174.418 219.276 173.569 215.964C172.656 212.413 172.276 211.368 171.306 209.652C170.064 207.465 168.951 206.72 167.335 206.984C166.969 207.048 166.509 207.15 166.318 207.218Z" fill="#DF5AA8"/>
<path d="M396.63 40.8477C395.892 40.8689 393.591 41.5308 392.693 41.9858C390.336 43.1722 388.236 44.8733 385.469 47.8204C383.654 49.747 381.269 52.3776 380.347 53.4854C380.06 53.8233 379.751 54.1431 379.648 54.2138C379.545 54.2845 379.454 54.4117 379.434 54.5012C379.414 54.5906 379.349 54.6566 379.278 54.6405C379.219 54.6272 379.145 54.6777 379.128 54.7544C379.099 54.8821 376.289 58.1285 376.119 58.2242C376.074 58.2545 375.913 58.4194 375.769 58.6152C375.555 58.9026 372.767 61.8316 372.558 61.9858C372.441 62.0666 372.367 61.6203 372.385 60.9392C372.404 60.1378 372.543 58.3694 373.082 52.2997C373.529 47.3509 373.532 46.1293 373.105 44.6091C372.564 42.7139 371.446 40.7287 370.459 39.9279C369.753 39.3655 368.748 39.1382 367.866 39.3552C366.801 39.6114 362.6 42.3554 361.016 43.8103C359.808 44.9206 358.738 45.9681 358.715 46.0704C358.703 46.1215 358.527 46.2965 358.315 46.4635C358.103 46.6305 357.924 46.8184 357.913 46.8695C357.898 46.9334 357.61 47.2713 357.284 47.6139C356.944 47.9666 356.582 48.355 356.48 48.4796C354.971 50.2605 354.651 50.6314 354.58 50.6691C354.524 50.6968 354.392 50.8415 354.269 51.0017C354.157 51.1645 353.987 51.3678 353.893 51.454C353.241 52.1393 351.568 54.2593 350.222 56.0904C349.802 56.6806 349.409 57.1558 349.362 57.1451C349.314 57.1344 349.198 56.9335 349.114 56.6997C349.007 56.4067 348.986 55.3411 349.062 53.3032C349.291 46.6262 348.96 41.9849 348.092 39.7742C347.778 38.9645 346.991 37.5509 346.527 36.9626C345.808 36.021 344.987 35.4728 343.994 35.2482C342.61 34.9354 341.192 35.3804 339.214 36.7599C338.125 37.5076 337.637 37.9614 336.659 39.0969C335.987 39.8717 335.405 40.5192 335.361 40.5495C335.305 40.5771 335.15 40.7703 335.018 40.9688C334.871 41.1774 334.721 41.345 334.674 41.3343C334.615 41.321 334.462 41.5014 334.337 41.7281C334.211 41.9548 334.046 42.1325 333.987 42.1192C333.928 42.1058 333.869 42.1462 333.852 42.2229C333.829 42.3251 333.062 43.2398 330.435 46.2855C330.3 46.443 330.167 46.5878 330.123 46.6181C330.079 46.6484 329.789 46.9991 329.46 47.4083C329.131 47.8175 328.802 48.1729 328.72 48.208C328.637 48.243 328.602 48.2888 328.649 48.2995C328.697 48.3102 328.497 48.5874 328.215 48.8998C327.93 49.2249 327.423 49.8219 327.094 50.2311C326.765 50.6403 326.436 50.9957 326.368 51.0207C326.301 51.0457 326.236 51.1116 326.224 51.1627C326.219 51.2421 325.459 52.2388 325.065 52.6602C324.963 52.7847 324.737 53.0694 324.575 53.2881L324.285 53.6926L324.043 53.1678C323.81 52.6585 323.719 50.368 323.623 43.2013C323.593 40.7501 323.413 38.3589 323.14 36.9272C322.509 33.6149 321.04 31.0936 318.85 29.6181C317.181 28.4754 315.898 28.7091 313.09 30.68C311.525 31.7766 310.305 32.8842 308.76 34.6571C308.179 35.3047 307.647 35.8964 307.585 35.9496C307.306 36.1953 304.736 39.6437 304.587 39.9727C304.549 40.0312 304.376 40.301 304.206 40.5581C304.025 40.8124 303.855 41.0695 303.814 41.1408C303.787 41.202 303.345 41.9482 302.853 42.8041C301.641 44.867 300.016 48.1528 299.147 50.2932C297.58 54.143 296.774 56.3916 296.444 57.8483C296.225 58.8194 296.225 58.8732 296.514 59.301C296.829 59.7753 297.531 60.2429 297.984 60.278C298.229 60.2931 298.58 59.7279 299.211 58.3125C299.284 58.1544 299.623 57.479 299.986 56.8089C300.805 55.2749 300.735 55.4202 300.931 54.9944C301.027 54.7878 301.156 54.5483 301.214 54.4541C301.273 54.3599 301.355 54.2173 301.384 54.1433C301.478 53.9495 301.65 53.6259 302.399 52.2373C302.747 51.5772 303.192 50.7645 303.365 50.4409C303.54 50.1045 303.73 49.758 303.789 49.6638C303.848 49.5696 303.95 49.3913 303.988 49.279C304.432 48.2511 306.918 44.6764 308.409 42.9184C308.75 42.5118 309.158 42.0265 309.299 41.8435C309.442 41.6476 309.604 41.4827 309.648 41.4524C309.704 41.4248 309.845 41.2417 309.974 41.056C310.528 40.2545 312.846 37.8102 313.711 37.1193C314.746 36.2789 316.45 35.1195 317.389 34.5932L318.414 34.019L318.485 34.4781C318.527 34.7295 318.65 35.563 318.775 36.33C319.107 38.487 319.127 38.8406 319.169 45.3102C319.195 48.6603 319.275 51.7677 319.331 52.2369C319.812 55.663 321.663 57.9216 324.531 58.543C325.82 58.8344 327.27 58.2489 328.861 56.8221C329.905 55.8896 331.477 53.72 332.624 51.6154C332.858 51.1848 333.124 50.775 333.204 50.699C333.292 50.6383 333.333 50.567 333.298 50.559C333.049 50.5029 335.189 47.8571 336.567 46.4898C336.952 46.1068 337.275 45.7769 337.284 45.7386C337.292 45.7002 337.68 45.3044 338.144 44.8453C338.594 44.3962 339.252 43.7392 339.602 43.4019C340.883 42.1335 342.202 41.3035 343.629 40.874C344.151 40.7099 344.6 40.6501 344.636 40.712C344.68 40.7892 344.734 43.8502 344.753 47.5076C344.813 54.7739 344.886 58.0271 345.019 58.5944C345.131 59.0897 345.973 60.368 346.668 61.0891C347.647 62.0896 348.48 62.6404 349.34 62.8484C350.05 63.0088 350.189 62.9999 350.89 62.7018C351.359 62.4988 351.977 62.0744 352.447 61.6435C352.888 61.2328 353.309 60.8578 353.385 60.7945C353.464 60.7184 353.511 60.6215 353.484 60.5751C353.446 60.5261 353.49 60.4958 353.561 60.5118C353.644 60.5306 353.717 60.48 353.734 60.4034C353.749 60.3395 353.963 59.9983 354.197 59.6753C354.435 59.3395 354.857 58.7365 355.139 58.3166C355.983 57.057 357.584 54.9209 357.735 54.8609C357.814 54.8386 357.879 54.7726 357.879 54.7188C357.887 54.5729 359.516 52.5908 359.622 52.6148C359.67 52.6255 359.734 52.5595 359.754 52.4701C359.798 52.2784 362.283 49.6437 363.482 48.518C363.955 48.0743 365.394 46.9893 366.683 46.1256C368.829 44.6632 369.029 44.5473 369.26 44.7339C369.679 45.0836 369.626 45.8642 368.642 53.8479C368.39 55.8995 368.17 58.0257 368.146 58.5709C368.106 59.9049 368.309 61.4818 368.66 62.5685C368.939 63.424 369.756 64.9786 369.945 65.0214C370.004 65.0348 370.123 65.1691 370.227 65.3135C370.659 65.9886 372.366 67.1804 373.158 67.3595C373.667 67.4744 373.75 67.4394 374.582 66.8352C376.592 65.3689 377.83 64.2384 378.918 62.8863C379.144 62.6016 379.4 62.3505 379.471 62.3127C379.553 62.2777 379.577 62.2292 379.529 62.2185C379.482 62.2078 379.681 61.8768 379.971 61.4724C380.549 60.6762 381.018 59.9764 381.041 59.8742C381.076 59.7208 383.063 57.2555 383.301 57.0811C383.437 56.9773 383.751 56.6858 384.007 56.4347C384.248 56.1937 384.577 55.8921 384.742 55.7681C384.906 55.6442 385.048 55.5149 385.056 55.4766C385.082 55.3616 385.955 54.471 386.07 54.4567C386.123 54.4418 386.179 54.3604 386.193 54.2965C386.237 54.1048 387.546 52.6011 388.812 51.2891C390.017 50.0303 390.702 49.5272 393.035 48.174C395.526 46.7225 397.31 46.2529 397.818 46.9185C398.202 47.4216 398.222 48.5409 397.879 50.7197C397.524 52.8958 396.693 59.0472 396.538 60.5568C396.145 64.4971 396.152 66.5537 396.627 72.2617C396.835 74.8606 397.038 77.042 397.074 77.1038C397.143 77.2401 398.131 76.4428 398.459 75.9798C398.582 75.8196 398.724 75.6904 398.783 75.7037C398.83 75.7144 398.874 75.6841 398.877 75.6176C398.877 75.5638 399.017 75.2194 399.174 74.8521C399.501 74.1201 399.515 73.9487 399.482 70.9596C399.449 67.9168 399.751 64.5467 400.593 58.7872C401.492 52.6108 401.618 50.7322 401.401 47.4596C401.114 43.2849 400.165 41.4858 398.019 41.0274C397.531 40.9306 396.905 40.8427 396.63 40.8477Z" fill="#DF5AA8"/>
</svg>
