<svg width="426" height="374" viewBox="0 0 426 374" fill="none" xmlns="http://www.w3.org/2000/svg">
<mask id="mask0_211_64" style="mask-type:alpha" maskUnits="userSpaceOnUse" x="0" y="-13" width="426" height="387">
<rect y="-13" width="426" height="387" fill="#C4C4C4"/>
</mask>
<g mask="url(#mask0_211_64)">
<ellipse cx="378" cy="231.5" rx="134" ry="133.5" fill="#2946BF"/>
</g>
<ellipse cx="241" cy="265.5" rx="64" ry="64.5" fill="#FFC897"/>
<path d="M166.318 208.218C165.807 208.406 164.362 209.312 163.847 209.772C162.495 210.975 161.45 212.395 160.249 214.647C159.46 216.121 158.448 218.111 158.08 218.929C157.963 219.18 157.827 219.427 157.772 219.489C157.718 219.552 157.686 219.643 157.694 219.696C157.702 219.749 157.674 219.8 157.62 219.808C157.575 219.815 157.536 219.86 157.543 219.905C157.555 219.981 156.4 222.405 156.304 222.498C156.281 222.525 156.209 222.652 156.157 222.792C156.079 222.999 154.859 225.246 154.752 225.379C154.69 225.451 154.527 225.227 154.369 224.855C154.183 224.418 153.838 223.429 152.7 220.022C151.778 217.241 151.475 216.581 150.796 215.861C149.945 214.967 148.667 214.161 147.776 213.964C147.142 213.828 146.382 213.945 145.819 214.273C145.138 214.665 142.884 217.15 142.138 218.314C141.57 219.202 141.083 220.023 141.092 220.083C141.097 220.114 141.017 220.25 140.911 220.391C140.804 220.532 140.726 220.676 140.731 220.706C140.736 220.744 140.62 220.995 140.477 221.258C140.327 221.53 140.171 221.826 140.13 221.918C139.519 223.24 139.387 223.517 139.347 223.554C139.315 223.582 139.259 223.692 139.212 223.808C139.175 223.922 139.107 224.073 139.062 224.142C138.777 224.668 138.136 226.212 137.651 227.522C137.505 227.941 137.349 228.292 137.313 228.297C137.277 228.303 137.146 228.222 137.028 228.115C136.88 227.983 136.6 227.412 136.144 226.293C134.637 222.631 133.247 220.203 132.088 219.216C131.666 218.853 130.763 218.277 130.291 218.07C129.553 217.733 128.842 217.633 128.09 217.748C127.044 217.909 126.163 218.488 125.123 219.705C124.548 220.369 124.32 220.73 123.919 221.577C123.642 222.156 123.397 222.644 123.374 222.671C123.342 222.7 123.281 222.841 123.238 222.98C123.188 223.127 123.125 223.254 123.089 223.259C123.044 223.266 122.982 223.4 122.951 223.552C122.92 223.705 122.849 223.84 122.804 223.847C122.759 223.854 122.728 223.89 122.735 223.935C122.745 223.996 122.437 224.673 121.359 226.945C121.303 227.062 121.247 227.172 121.224 227.199C121.2 227.226 121.085 227.485 120.957 227.784C120.829 228.084 120.688 228.354 120.639 228.393C120.59 228.431 120.576 228.464 120.612 228.459C120.648 228.453 120.578 228.651 120.458 228.887C120.34 229.13 120.134 229.574 120.006 229.873C119.878 230.173 119.737 230.443 119.695 230.473C119.654 230.503 119.626 230.554 119.63 230.584C119.646 230.628 119.363 231.348 119.193 231.669C119.152 231.761 119.065 231.969 119.007 232.126L118.905 232.413L118.605 232.188C118.314 231.968 117.679 230.752 115.823 226.904C115.19 225.587 114.467 224.338 113.918 223.63C112.65 221.991 110.993 220.979 109.092 220.704C107.639 220.485 106.799 220.917 105.327 222.652C104.505 223.618 103.928 224.507 103.29 225.833C103.045 226.322 102.821 226.768 102.791 226.811C102.657 227.011 101.72 229.487 101.697 229.7C101.685 229.741 101.632 229.928 101.577 230.107C101.513 230.288 101.459 230.467 101.448 230.516C101.445 230.555 101.321 231.063 101.191 231.643C100.858 233.047 100.541 235.209 100.467 236.573C100.332 239.026 100.329 240.434 100.462 241.299C100.551 241.876 100.565 241.905 100.873 242.067C101.212 242.248 101.821 242.333 102.146 242.244C102.321 242.194 102.426 241.805 102.514 240.89C102.525 240.787 102.594 240.341 102.681 239.893C102.871 238.869 102.858 238.964 102.889 238.687C102.905 238.553 102.935 238.392 102.952 238.328C102.97 238.263 102.992 238.166 102.994 238.119C103.011 237.992 103.051 237.776 103.228 236.847C103.307 236.408 103.415 235.863 103.455 235.647C103.494 235.423 103.541 235.191 103.558 235.126C103.576 235.061 103.603 234.94 103.601 234.87C103.655 234.209 104.502 231.685 105.107 230.38C105.244 230.079 105.408 229.719 105.461 229.587C105.513 229.447 105.584 229.319 105.608 229.292C105.64 229.264 105.693 229.131 105.737 229C105.924 228.435 106.936 226.562 107.369 225.982C107.883 225.281 108.786 224.249 109.312 223.74L109.886 223.186L110.05 223.417C110.142 223.542 110.436 223.964 110.715 224.348C111.486 225.434 111.588 225.62 113.232 229.105C114.087 230.909 114.919 232.568 115.075 232.809C116.267 234.545 118.126 235.323 120.288 234.975C121.263 234.825 122.131 234.163 122.888 233.013C123.385 232.26 123.944 230.713 124.221 229.302C124.277 229.014 124.361 228.729 124.398 228.669C124.444 228.615 124.455 228.567 124.429 228.571C124.241 228.6 125.077 226.66 125.7 225.593C125.874 225.294 126.018 225.039 126.014 225.016C126.011 224.993 126.183 224.687 126.394 224.328C126.596 223.978 126.893 223.466 127.053 223.201C127.633 222.21 128.349 221.447 129.24 220.874C129.564 220.661 129.863 220.522 129.904 220.547C129.954 220.578 130.756 222.219 131.682 224.19C133.538 228.101 134.401 229.841 134.636 230.116C134.838 230.357 135.746 230.846 136.412 231.07C137.348 231.377 138.068 231.476 138.722 231.383C139.258 231.301 139.353 231.263 139.769 230.934C140.047 230.713 140.373 230.336 140.595 229.991C140.801 229.664 141.001 229.361 141.039 229.309C141.075 229.249 141.084 229.185 141.054 229.167C141.014 229.149 141.038 229.122 141.091 229.114C141.154 229.105 141.193 229.06 141.186 229.014C141.18 228.976 141.244 228.741 141.328 228.51C141.41 228.272 141.555 227.846 141.647 227.552C141.923 226.67 142.511 225.134 142.601 225.066C142.651 225.035 142.68 224.984 142.666 224.955C142.636 224.874 143.281 223.415 143.361 223.402C143.397 223.397 143.426 223.346 143.417 223.293C143.4 223.179 144.481 221.163 145.039 220.268C145.26 219.916 145.995 218.987 146.682 218.212C147.818 216.911 147.929 216.8 148.138 216.846C148.517 216.935 148.676 217.369 149.98 221.917C150.316 223.085 150.693 224.286 150.812 224.587C151.117 225.317 151.653 226.12 152.17 226.624C152.578 227.019 153.538 227.664 153.681 227.642C153.726 227.635 153.843 227.68 153.951 227.733C154.422 227.995 155.914 228.231 156.513 228.139C156.898 228.08 156.947 228.041 157.379 227.516C158.419 226.245 159.002 225.339 159.427 224.349C159.514 224.141 159.63 223.944 159.67 223.907C159.719 223.868 159.723 223.837 159.688 223.842C159.652 223.848 159.708 223.621 159.811 223.333C160.016 222.766 160.17 222.276 160.16 222.215C160.146 222.124 160.921 220.318 161.044 220.167C161.113 220.079 161.26 219.846 161.376 219.65C161.485 219.462 161.64 219.22 161.724 219.114C161.809 219.008 161.875 218.904 161.872 218.882C161.861 218.813 162.249 218.124 162.326 218.089C162.36 218.068 162.378 218.011 162.373 217.973C162.355 217.859 162.896 216.734 163.454 215.724C163.983 214.756 164.337 214.321 165.631 213.034C167.012 211.655 168.143 210.976 168.665 211.214C169.059 211.395 169.353 211.994 169.656 213.253C169.951 214.514 170.905 218.035 171.174 218.887C171.882 221.11 172.401 222.219 174.158 225.189C174.952 226.544 175.639 227.674 175.679 227.699C175.761 227.756 176.254 227.089 176.368 226.761C176.414 226.645 176.481 226.541 176.525 226.535C176.561 226.529 176.585 226.502 176.57 226.466C176.556 226.437 176.568 226.217 176.587 225.981C176.633 225.508 176.6 225.412 175.831 223.805C175.048 222.169 174.418 220.276 173.569 216.964C172.656 213.413 172.276 212.368 171.306 210.652C170.064 208.465 168.951 207.72 167.335 207.984C166.969 208.048 166.509 208.15 166.318 208.218Z" fill="#2946BF"/>
<path d="M396.63 41.8477C395.892 41.8689 393.591 42.5308 392.693 42.9858C390.336 44.1722 388.236 45.8733 385.469 48.8204C383.654 50.747 381.269 53.3776 380.347 54.4854C380.06 54.8233 379.751 55.1431 379.648 55.2138C379.545 55.2845 379.454 55.4117 379.434 55.5012C379.414 55.5906 379.349 55.6566 379.278 55.6405C379.219 55.6272 379.145 55.6777 379.128 55.7544C379.099 55.8821 376.289 59.1285 376.119 59.2242C376.074 59.2545 375.913 59.4194 375.769 59.6152C375.555 59.9026 372.767 62.8316 372.558 62.9858C372.441 63.0666 372.367 62.6203 372.385 61.9392C372.404 61.1378 372.543 59.3694 373.082 53.2997C373.529 48.3509 373.532 47.1293 373.105 45.6091C372.564 43.7139 371.446 41.7287 370.459 40.9279C369.753 40.3655 368.748 40.1382 367.866 40.3552C366.801 40.6114 362.6 43.3554 361.016 44.8103C359.808 45.9206 358.738 46.9681 358.715 47.0704C358.703 47.1215 358.527 47.2965 358.315 47.4635C358.103 47.6305 357.924 47.8184 357.913 47.8695C357.898 47.9334 357.61 48.2713 357.284 48.6139C356.944 48.9666 356.582 49.355 356.48 49.4796C354.971 51.2605 354.651 51.6314 354.58 51.6691C354.524 51.6968 354.392 51.8415 354.269 52.0017C354.157 52.1645 353.987 52.3678 353.893 52.454C353.241 53.1393 351.568 55.2593 350.222 57.0904C349.802 57.6806 349.409 58.1558 349.362 58.1451C349.314 58.1344 349.198 57.9335 349.114 57.6997C349.007 57.4067 348.986 56.3411 349.062 54.3032C349.291 47.6262 348.96 42.9849 348.092 40.7742C347.778 39.9645 346.991 38.5509 346.527 37.9626C345.808 37.021 344.987 36.4728 343.994 36.2482C342.61 35.9354 341.192 36.3804 339.214 37.7599C338.125 38.5076 337.637 38.9614 336.659 40.0969C335.987 40.8717 335.405 41.5192 335.361 41.5495C335.305 41.5771 335.15 41.7703 335.018 41.9688C334.871 42.1774 334.721 42.345 334.674 42.3343C334.615 42.321 334.462 42.5014 334.337 42.7281C334.211 42.9548 334.046 43.1325 333.987 43.1192C333.928 43.1058 333.869 43.1462 333.852 43.2229C333.829 43.3251 333.062 44.2398 330.435 47.2855C330.3 47.443 330.167 47.5878 330.123 47.6181C330.079 47.6484 329.789 47.9991 329.46 48.4083C329.131 48.8175 328.802 49.1729 328.72 49.208C328.637 49.243 328.602 49.2888 328.649 49.2995C328.697 49.3102 328.497 49.5874 328.215 49.8998C327.93 50.2249 327.423 50.8219 327.094 51.2311C326.765 51.6403 326.436 51.9957 326.368 52.0207C326.301 52.0457 326.236 52.1116 326.224 52.1627C326.219 52.2421 325.459 53.2388 325.065 53.6602C324.963 53.7847 324.737 54.0694 324.575 54.2881L324.285 54.6926L324.043 54.1678C323.81 53.6585 323.719 51.368 323.623 44.2013C323.593 41.7501 323.413 39.3589 323.14 37.9272C322.509 34.6149 321.04 32.0936 318.85 30.6181C317.181 29.4754 315.898 29.7091 313.09 31.68C311.525 32.7766 310.305 33.8842 308.76 35.6571C308.179 36.3047 307.647 36.8964 307.585 36.9496C307.306 37.1953 304.736 40.6437 304.587 40.9727C304.549 41.0312 304.376 41.301 304.206 41.5581C304.025 41.8124 303.855 42.0695 303.814 42.1408C303.787 42.202 303.345 42.9482 302.853 43.8041C301.641 45.867 300.016 49.1528 299.147 51.2932C297.58 55.143 296.774 57.3916 296.444 58.8483C296.225 59.8194 296.225 59.8732 296.514 60.301C296.829 60.7753 297.531 61.2429 297.984 61.278C298.229 61.2931 298.58 60.7279 299.211 59.3125C299.284 59.1544 299.623 58.479 299.986 57.8089C300.805 56.2749 300.735 56.4202 300.931 55.9944C301.027 55.7878 301.156 55.5483 301.214 55.4541C301.273 55.3599 301.355 55.2173 301.384 55.1433C301.478 54.9495 301.65 54.6259 302.399 53.2373C302.747 52.5772 303.192 51.7645 303.365 51.4409C303.54 51.1045 303.73 50.758 303.789 50.6638C303.848 50.5696 303.95 50.3913 303.988 50.279C304.432 49.2511 306.918 45.6764 308.409 43.9184C308.75 43.5118 309.158 43.0265 309.299 42.8435C309.442 42.6476 309.604 42.4827 309.648 42.4524C309.704 42.4248 309.845 42.2417 309.974 42.056C310.528 41.2545 312.846 38.8102 313.711 38.1193C314.746 37.2789 316.45 36.1195 317.389 35.5932L318.414 35.019L318.485 35.4781C318.527 35.7295 318.65 36.563 318.775 37.33C319.107 39.487 319.127 39.8406 319.169 46.3102C319.195 49.6603 319.275 52.7677 319.331 53.2369C319.812 56.663 321.663 58.9216 324.531 59.543C325.82 59.8344 327.27 59.2489 328.861 57.8221C329.905 56.8896 331.477 54.72 332.624 52.6154C332.858 52.1848 333.124 51.775 333.204 51.699C333.292 51.6383 333.333 51.567 333.298 51.559C333.049 51.5029 335.189 48.8571 336.567 47.4898C336.952 47.1068 337.275 46.7769 337.284 46.7386C337.292 46.7002 337.68 46.3044 338.144 45.8453C338.594 45.3962 339.252 44.7392 339.602 44.4019C340.883 43.1335 342.202 42.3035 343.629 41.874C344.151 41.7099 344.6 41.6501 344.636 41.712C344.68 41.7892 344.734 44.8502 344.753 48.5076C344.813 55.7739 344.886 59.0271 345.019 59.5944C345.131 60.0897 345.973 61.368 346.668 62.0891C347.647 63.0896 348.48 63.6404 349.34 63.8484C350.05 64.0088 350.189 63.9999 350.89 63.7018C351.359 63.4988 351.977 63.0744 352.447 62.6435C352.888 62.2328 353.309 61.8578 353.385 61.7945C353.464 61.7184 353.511 61.6215 353.484 61.5751C353.446 61.5261 353.49 61.4958 353.561 61.5118C353.644 61.5306 353.717 61.48 353.734 61.4034C353.749 61.3395 353.963 60.9983 354.197 60.6753C354.435 60.3395 354.857 59.7365 355.139 59.3166C355.983 58.057 357.584 55.9209 357.735 55.8609C357.814 55.8386 357.879 55.7726 357.879 55.7188C357.887 55.5729 359.516 53.5908 359.622 53.6148C359.67 53.6255 359.734 53.5595 359.754 53.4701C359.798 53.2784 362.283 50.6437 363.482 49.518C363.955 49.0743 365.394 47.9893 366.683 47.1256C368.829 45.6632 369.029 45.5473 369.26 45.7339C369.679 46.0836 369.626 46.8642 368.642 54.8479C368.39 56.8995 368.17 59.0257 368.146 59.5709C368.106 60.9049 368.309 62.4818 368.66 63.5685C368.939 64.424 369.756 65.9786 369.945 66.0214C370.004 66.0348 370.123 66.1691 370.227 66.3135C370.659 66.9886 372.366 68.1804 373.158 68.3595C373.667 68.4744 373.75 68.4394 374.582 67.8352C376.592 66.3689 377.83 65.2384 378.918 63.8863C379.144 63.6016 379.4 63.3505 379.471 63.3127C379.553 63.2777 379.577 63.2292 379.529 63.2185C379.482 63.2078 379.681 62.8768 379.971 62.4724C380.549 61.6762 381.018 60.9764 381.041 60.8742C381.076 60.7208 383.063 58.2555 383.301 58.0811C383.437 57.9773 383.751 57.6858 384.007 57.4347C384.248 57.1937 384.577 56.8921 384.742 56.7681C384.906 56.6442 385.048 56.5149 385.056 56.4766C385.082 56.3616 385.955 55.471 386.07 55.4567C386.123 55.4418 386.179 55.3604 386.193 55.2965C386.237 55.1048 387.546 53.6011 388.812 52.2891C390.017 51.0303 390.702 50.5272 393.035 49.174C395.526 47.7225 397.31 47.2529 397.818 47.9185C398.202 48.4216 398.222 49.5409 397.879 51.7197C397.524 53.8958 396.693 60.0472 396.538 61.5568C396.145 65.4971 396.152 67.5537 396.627 73.2617C396.835 75.8606 397.038 78.042 397.074 78.1038C397.143 78.2401 398.131 77.4428 398.459 76.9798C398.582 76.8196 398.724 76.6904 398.783 76.7037C398.83 76.7144 398.874 76.6841 398.877 76.6176C398.877 76.5638 399.017 76.2194 399.174 75.8521C399.501 75.1201 399.515 74.9487 399.482 71.9596C399.449 68.9168 399.751 65.5467 400.593 59.7872C401.492 53.6108 401.618 51.7322 401.401 48.4596C401.114 44.2849 400.165 42.4858 398.019 42.0274C397.531 41.9306 396.905 41.8427 396.63 41.8477Z" fill="#2946BF"/>
</svg>
