<svg width="426" height="385" viewBox="0 0 426 385" fill="none" xmlns="http://www.w3.org/2000/svg">
<mask id="mask0_211_28" style="mask-type:alpha" maskUnits="userSpaceOnUse" x="0" y="-2" width="426" height="387">
<rect y="-2" width="426" height="387" fill="#C4C4C4"/>
</mask>
<g mask="url(#mask0_211_28)">
<ellipse cx="378" cy="242.5" rx="134" ry="133.5" fill="#FFC897" class="primary"/>
</g>
<ellipse cx="241" cy="276.5" rx="64" ry="64.5" fill="#D7BCFD" class="secondary"/>
<path d="M166.318 219.218C165.807 219.406 164.362 220.312 163.847 220.772C162.495 221.975 161.45 223.395 160.249 225.647C159.46 227.121 158.448 229.111 158.08 229.929C157.963 230.18 157.827 230.427 157.772 230.489C157.718 230.552 157.686 230.643 157.694 230.696C157.702 230.749 157.674 230.8 157.62 230.808C157.575 230.815 157.536 230.86 157.543 230.905C157.555 230.981 156.4 233.405 156.304 233.498C156.281 233.525 156.209 233.652 156.157 233.792C156.079 233.999 154.859 236.246 154.752 236.379C154.69 236.451 154.527 236.227 154.369 235.855C154.183 235.418 153.838 234.429 152.7 231.022C151.778 228.241 151.475 227.581 150.796 226.861C149.945 225.967 148.667 225.161 147.776 224.964C147.142 224.828 146.382 224.945 145.819 225.273C145.138 225.665 142.884 228.15 142.138 229.314C141.57 230.202 141.083 231.023 141.092 231.083C141.097 231.114 141.017 231.25 140.911 231.391C140.804 231.532 140.726 231.676 140.731 231.706C140.736 231.744 140.62 231.995 140.477 232.258C140.327 232.53 140.171 232.826 140.13 232.918C139.519 234.24 139.387 234.517 139.347 234.554C139.315 234.582 139.259 234.692 139.212 234.808C139.175 234.922 139.107 235.073 139.062 235.142C138.777 235.668 138.136 237.212 137.651 238.522C137.505 238.941 137.349 239.292 137.313 239.297C137.277 239.303 137.146 239.222 137.028 239.115C136.88 238.983 136.6 238.412 136.144 237.293C134.637 233.631 133.247 231.203 132.088 230.216C131.666 229.853 130.763 229.277 130.291 229.07C129.553 228.733 128.842 228.633 128.09 228.748C127.044 228.909 126.163 229.488 125.123 230.705C124.548 231.369 124.32 231.73 123.919 232.577C123.642 233.156 123.397 233.644 123.374 233.671C123.342 233.7 123.281 233.841 123.238 233.98C123.188 234.127 123.125 234.254 123.089 234.259C123.044 234.266 122.982 234.4 122.951 234.552C122.92 234.705 122.849 234.84 122.804 234.847C122.759 234.854 122.728 234.89 122.735 234.935C122.745 234.996 122.437 235.673 121.359 237.945C121.303 238.062 121.247 238.172 121.224 238.199C121.2 238.226 121.085 238.485 120.957 238.784C120.829 239.084 120.688 239.354 120.639 239.393C120.59 239.431 120.576 239.464 120.612 239.459C120.648 239.453 120.578 239.651 120.458 239.887C120.34 240.13 120.134 240.574 120.006 240.873C119.878 241.173 119.737 241.443 119.695 241.473C119.654 241.503 119.626 241.554 119.63 241.584C119.646 241.628 119.363 242.348 119.193 242.669C119.152 242.761 119.065 242.969 119.007 243.126L118.905 243.413L118.605 243.188C118.314 242.968 117.679 241.752 115.823 237.904C115.19 236.587 114.467 235.338 113.918 234.63C112.65 232.991 110.993 231.979 109.092 231.704C107.639 231.485 106.799 231.917 105.327 233.652C104.505 234.618 103.928 235.507 103.29 236.833C103.045 237.322 102.821 237.768 102.791 237.811C102.657 238.011 101.72 240.487 101.697 240.7C101.685 240.741 101.632 240.928 101.577 241.107C101.513 241.288 101.459 241.467 101.448 241.516C101.445 241.555 101.321 242.063 101.191 242.643C100.858 244.047 100.541 246.209 100.467 247.573C100.332 250.026 100.329 251.434 100.462 252.299C100.551 252.876 100.565 252.905 100.873 253.067C101.212 253.248 101.821 253.333 102.146 253.244C102.321 253.194 102.426 252.805 102.514 251.89C102.525 251.787 102.594 251.341 102.681 250.893C102.871 249.869 102.858 249.964 102.889 249.687C102.905 249.553 102.935 249.392 102.952 249.328C102.97 249.263 102.992 249.166 102.994 249.119C103.011 248.992 103.051 248.776 103.228 247.847C103.307 247.408 103.415 246.863 103.455 246.647C103.494 246.423 103.541 246.191 103.558 246.126C103.576 246.061 103.603 245.94 103.601 245.87C103.655 245.209 104.502 242.685 105.107 241.38C105.244 241.079 105.408 240.719 105.461 240.587C105.513 240.447 105.584 240.319 105.608 240.292C105.64 240.264 105.693 240.131 105.737 240C105.924 239.435 106.936 237.562 107.369 236.982C107.883 236.281 108.786 235.249 109.312 234.74L109.886 234.186L110.05 234.417C110.142 234.542 110.436 234.964 110.715 235.348C111.486 236.434 111.588 236.62 113.232 240.105C114.087 241.909 114.919 243.568 115.075 243.809C116.267 245.545 118.126 246.323 120.288 245.975C121.263 245.825 122.131 245.163 122.888 244.013C123.385 243.26 123.944 241.713 124.221 240.302C124.277 240.014 124.361 239.729 124.398 239.669C124.444 239.615 124.455 239.567 124.429 239.571C124.241 239.6 125.077 237.66 125.7 236.593C125.874 236.294 126.018 236.039 126.014 236.016C126.011 235.993 126.183 235.687 126.394 235.328C126.596 234.978 126.893 234.466 127.053 234.201C127.633 233.21 128.349 232.447 129.24 231.874C129.564 231.661 129.863 231.522 129.904 231.547C129.954 231.578 130.756 233.219 131.682 235.19C133.538 239.101 134.401 240.841 134.636 241.116C134.838 241.357 135.746 241.846 136.412 242.07C137.348 242.377 138.068 242.476 138.722 242.383C139.258 242.301 139.353 242.263 139.769 241.934C140.047 241.713 140.373 241.336 140.595 240.991C140.801 240.664 141.001 240.361 141.039 240.309C141.075 240.249 141.084 240.185 141.054 240.167C141.014 240.149 141.038 240.122 141.091 240.114C141.154 240.105 141.193 240.06 141.186 240.014C141.18 239.976 141.244 239.741 141.328 239.51C141.41 239.272 141.555 238.846 141.647 238.552C141.923 237.67 142.511 236.134 142.601 236.066C142.651 236.035 142.68 235.984 142.666 235.955C142.636 235.874 143.281 234.415 143.361 234.402C143.397 234.397 143.426 234.346 143.417 234.293C143.4 234.179 144.481 232.163 145.039 231.268C145.26 230.916 145.995 229.987 146.682 229.212C147.818 227.911 147.929 227.8 148.138 227.846C148.517 227.935 148.676 228.369 149.98 232.917C150.316 234.085 150.693 235.286 150.812 235.587C151.117 236.317 151.653 237.12 152.17 237.624C152.578 238.019 153.538 238.664 153.681 238.642C153.726 238.635 153.843 238.68 153.951 238.733C154.422 238.995 155.914 239.231 156.513 239.139C156.898 239.08 156.947 239.041 157.379 238.516C158.419 237.245 159.002 236.339 159.427 235.349C159.514 235.141 159.63 234.944 159.67 234.907C159.719 234.868 159.723 234.837 159.688 234.842C159.652 234.848 159.708 234.621 159.811 234.333C160.016 233.766 160.17 233.276 160.16 233.215C160.146 233.124 160.921 231.318 161.044 231.167C161.113 231.079 161.26 230.846 161.376 230.65C161.485 230.462 161.64 230.22 161.724 230.114C161.809 230.008 161.875 229.904 161.872 229.882C161.861 229.813 162.249 229.124 162.326 229.089C162.36 229.068 162.378 229.011 162.373 228.973C162.355 228.859 162.896 227.734 163.454 226.724C163.983 225.756 164.337 225.321 165.631 224.034C167.012 222.655 168.143 221.976 168.665 222.214C169.059 222.395 169.353 222.994 169.656 224.253C169.951 225.514 170.905 229.035 171.174 229.887C171.882 232.11 172.401 233.219 174.158 236.189C174.952 237.544 175.639 238.674 175.679 238.699C175.761 238.756 176.254 238.089 176.368 237.761C176.414 237.645 176.481 237.541 176.525 237.535C176.561 237.529 176.585 237.502 176.57 237.466C176.556 237.437 176.568 237.217 176.587 236.981C176.633 236.508 176.6 236.412 175.831 234.805C175.048 233.169 174.418 231.276 173.569 227.964C172.656 224.413 172.276 223.368 171.306 221.652C170.064 219.465 168.951 218.72 167.335 218.984C166.969 219.048 166.509 219.15 166.318 219.218Z" fill="#FFC897" class="primary"/>
<path d="M396.63 52.8477C395.892 52.8689 393.591 53.5308 392.693 53.9858C390.336 55.1722 388.236 56.8733 385.469 59.8204C383.654 61.747 381.269 64.3776 380.347 65.4854C380.06 65.8233 379.751 66.1431 379.648 66.2138C379.545 66.2845 379.454 66.4117 379.434 66.5012C379.414 66.5906 379.349 66.6566 379.278 66.6405C379.219 66.6272 379.145 66.6777 379.128 66.7544C379.099 66.8821 376.289 70.1285 376.119 70.2242C376.074 70.2545 375.913 70.4194 375.769 70.6152C375.555 70.9026 372.767 73.8316 372.558 73.9858C372.441 74.0666 372.367 73.6203 372.385 72.9392C372.404 72.1378 372.543 70.3694 373.082 64.2997C373.529 59.3509 373.532 58.1293 373.105 56.6091C372.564 54.7139 371.446 52.7287 370.459 51.9279C369.753 51.3655 368.748 51.1382 367.866 51.3552C366.801 51.6114 362.6 54.3554 361.016 55.8103C359.808 56.9206 358.738 57.9681 358.715 58.0704C358.703 58.1215 358.527 58.2965 358.315 58.4635C358.103 58.6305 357.924 58.8184 357.913 58.8695C357.898 58.9334 357.61 59.2713 357.284 59.6139C356.944 59.9666 356.582 60.355 356.48 60.4796C354.971 62.2605 354.651 62.6314 354.58 62.6691C354.524 62.6968 354.392 62.8415 354.269 63.0017C354.157 63.1645 353.987 63.3678 353.893 63.454C353.241 64.1393 351.568 66.2593 350.222 68.0904C349.802 68.6806 349.409 69.1558 349.362 69.1451C349.314 69.1344 349.198 68.9335 349.114 68.6997C349.007 68.4067 348.986 67.3411 349.062 65.3032C349.291 58.6262 348.96 53.9849 348.092 51.7742C347.778 50.9645 346.991 49.5509 346.527 48.9626C345.808 48.021 344.987 47.4728 343.994 47.2482C342.61 46.9354 341.192 47.3804 339.214 48.7599C338.125 49.5076 337.637 49.9614 336.659 51.0969C335.987 51.8717 335.405 52.5192 335.361 52.5495C335.305 52.5771 335.15 52.7703 335.018 52.9688C334.871 53.1774 334.721 53.345 334.674 53.3343C334.615 53.321 334.462 53.5014 334.337 53.7281C334.211 53.9548 334.046 54.1325 333.987 54.1192C333.928 54.1058 333.869 54.1462 333.852 54.2229C333.829 54.3251 333.062 55.2398 330.435 58.2855C330.3 58.443 330.167 58.5878 330.123 58.6181C330.079 58.6484 329.789 58.9991 329.46 59.4083C329.131 59.8175 328.802 60.1729 328.72 60.208C328.637 60.243 328.602 60.2888 328.649 60.2995C328.697 60.3102 328.497 60.5874 328.215 60.8998C327.93 61.2249 327.423 61.8219 327.094 62.2311C326.765 62.6403 326.436 62.9957 326.368 63.0207C326.301 63.0457 326.236 63.1116 326.224 63.1627C326.219 63.2421 325.459 64.2388 325.065 64.6602C324.963 64.7847 324.737 65.0694 324.575 65.2881L324.285 65.6926L324.043 65.1678C323.81 64.6585 323.719 62.368 323.623 55.2013C323.593 52.7501 323.413 50.3589 323.14 48.9272C322.509 45.6149 321.04 43.0936 318.85 41.6181C317.181 40.4754 315.898 40.7091 313.09 42.68C311.525 43.7766 310.305 44.8842 308.76 46.6571C308.179 47.3047 307.647 47.8964 307.585 47.9496C307.306 48.1953 304.736 51.6437 304.587 51.9727C304.549 52.0312 304.376 52.301 304.206 52.5581C304.025 52.8124 303.855 53.0695 303.814 53.1408C303.787 53.202 303.345 53.9482 302.853 54.8041C301.641 56.867 300.016 60.1528 299.147 62.2932C297.58 66.143 296.774 68.3916 296.444 69.8483C296.225 70.8194 296.225 70.8732 296.514 71.301C296.829 71.7753 297.531 72.2429 297.984 72.278C298.229 72.2931 298.58 71.7279 299.211 70.3125C299.284 70.1544 299.623 69.479 299.986 68.8089C300.805 67.2749 300.735 67.4202 300.931 66.9944C301.027 66.7878 301.156 66.5483 301.214 66.4541C301.273 66.3599 301.355 66.2173 301.384 66.1433C301.478 65.9495 301.65 65.6259 302.399 64.2373C302.747 63.5772 303.192 62.7645 303.365 62.4409C303.54 62.1045 303.73 61.758 303.789 61.6638C303.848 61.5696 303.95 61.3913 303.988 61.279C304.432 60.2511 306.918 56.6764 308.409 54.9184C308.75 54.5118 309.158 54.0265 309.299 53.8435C309.442 53.6476 309.604 53.4827 309.648 53.4524C309.704 53.4248 309.845 53.2417 309.974 53.056C310.528 52.2545 312.846 49.8102 313.711 49.1193C314.746 48.2789 316.45 47.1195 317.389 46.5932L318.414 46.019L318.485 46.4781C318.527 46.7295 318.65 47.563 318.775 48.33C319.107 50.487 319.127 50.8406 319.169 57.3102C319.195 60.6603 319.275 63.7677 319.331 64.2369C319.812 67.663 321.663 69.9216 324.531 70.543C325.82 70.8344 327.27 70.2489 328.861 68.8221C329.905 67.8896 331.477 65.72 332.624 63.6154C332.858 63.1848 333.124 62.775 333.204 62.699C333.292 62.6383 333.333 62.567 333.298 62.559C333.049 62.5029 335.189 59.8571 336.567 58.4898C336.952 58.1068 337.275 57.7769 337.284 57.7386C337.292 57.7002 337.68 57.3044 338.144 56.8453C338.594 56.3962 339.252 55.7392 339.602 55.4019C340.883 54.1335 342.202 53.3035 343.629 52.874C344.151 52.7099 344.6 52.6501 344.636 52.712C344.68 52.7892 344.734 55.8502 344.753 59.5076C344.813 66.7739 344.886 70.0271 345.019 70.5944C345.131 71.0897 345.973 72.368 346.668 73.0891C347.647 74.0896 348.48 74.6404 349.34 74.8484C350.05 75.0088 350.189 74.9999 350.89 74.7018C351.359 74.4988 351.977 74.0744 352.447 73.6435C352.888 73.2328 353.309 72.8578 353.385 72.7945C353.464 72.7184 353.511 72.6215 353.484 72.5751C353.446 72.5261 353.49 72.4958 353.561 72.5118C353.644 72.5306 353.717 72.48 353.734 72.4034C353.749 72.3395 353.963 71.9983 354.197 71.6753C354.435 71.3395 354.857 70.7365 355.139 70.3166C355.983 69.057 357.584 66.9209 357.735 66.8609C357.814 66.8386 357.879 66.7726 357.879 66.7188C357.887 66.5729 359.516 64.5908 359.622 64.6148C359.67 64.6255 359.734 64.5595 359.754 64.4701C359.798 64.2784 362.283 61.6437 363.482 60.518C363.955 60.0743 365.394 58.9893 366.683 58.1256C368.829 56.6632 369.029 56.5473 369.26 56.7339C369.679 57.0836 369.626 57.8642 368.642 65.8479C368.39 67.8995 368.17 70.0257 368.146 70.5709C368.106 71.9049 368.309 73.4818 368.66 74.5685C368.939 75.424 369.756 76.9786 369.945 77.0214C370.004 77.0348 370.123 77.1691 370.227 77.3135C370.659 77.9886 372.366 79.1804 373.158 79.3595C373.667 79.4744 373.75 79.4394 374.582 78.8352C376.592 77.3689 377.83 76.2384 378.918 74.8863C379.144 74.6016 379.4 74.3505 379.471 74.3127C379.553 74.2777 379.577 74.2292 379.529 74.2185C379.482 74.2078 379.681 73.8768 379.971 73.4724C380.549 72.6762 381.018 71.9764 381.041 71.8742C381.076 71.7208 383.063 69.2555 383.301 69.0811C383.437 68.9773 383.751 68.6858 384.007 68.4347C384.248 68.1937 384.577 67.8921 384.742 67.7681C384.906 67.6442 385.048 67.5149 385.056 67.4766C385.082 67.3616 385.955 66.471 386.07 66.4567C386.123 66.4418 386.179 66.3604 386.193 66.2965C386.237 66.1048 387.546 64.6011 388.812 63.2891C390.017 62.0303 390.702 61.5272 393.035 60.174C395.526 58.7225 397.31 58.2529 397.818 58.9185C398.202 59.4216 398.222 60.5409 397.879 62.7197C397.524 64.8958 396.693 71.0472 396.538 72.5568C396.145 76.4971 396.152 78.5537 396.627 84.2617C396.835 86.8606 397.038 89.042 397.074 89.1038C397.143 89.2401 398.131 88.4428 398.459 87.9798C398.582 87.8196 398.724 87.6904 398.783 87.7037C398.83 87.7144 398.874 87.6841 398.877 87.6176C398.877 87.5638 399.017 87.2194 399.174 86.8521C399.501 86.1201 399.515 85.9487 399.482 82.9596C399.449 79.9168 399.751 76.5467 400.593 70.7872C401.492 64.6108 401.618 62.7322 401.401 59.4596C401.114 55.2849 400.165 53.4858 398.019 53.0274C397.531 52.9306 396.905 52.8427 396.63 52.8477Z" fill="#FFC897" class="primary"/>
</svg>
